<?xml version="1.0" encoding="UTF-8" standalone="no"?><!DOCTYPE svg PUBLIC "-//W3C//DTD SVG 1.1//EN" "http://www.w3.org/Graphics/SVG/1.1/DTD/svg11.dtd"><svg width="100%" height="100%" viewBox="0 0 3752 1076" version="1.1" xmlns="http://www.w3.org/2000/svg" xmlns:xlink="http://www.w3.org/1999/xlink" xml:space="preserve" xmlns:serif="http://www.serif.com/" style="fill-rule:evenodd;clip-rule:evenodd;stroke-miterlimit:22.9256;"><ellipse cx="519.044" cy="537.829" rx="434.351" ry="453.135" style="fill:#1a1a18;stroke:#1a1a18;stroke-width:7.38px;"/><path d="M519.045,106.998c227.561,-0 412.031,192.889 412.031,430.829c-0,237.926 -184.47,430.834 -412.031,430.834c-227.563,-0 -412.032,-192.908 -412.032,-430.834c0,-237.94 184.469,-430.829 412.032,-430.829Zm-0,11.157c221.397,0 400.872,187.895 400.872,419.672c0,231.772 -179.475,419.668 -400.872,419.668c-221.399,0 -400.874,-187.896 -400.874,-419.668c0,-231.777 179.475,-419.672 400.874,-419.672Z" style="fill:#e16f1b;stroke:#1a1a18;stroke-width:7.38px;"/><path d="M810.374,468.585c3.694,8.781 6.998,17.761 9.896,26.932c4.76,15.086 -2.303,31.495 -16.51,38.48c-252.22,124.007 -486.378,40.843 -568.586,3.42c-14.845,-6.762 -22.183,-23.548 -17.414,-39.156c3.166,-10.35 6.843,-20.482 11.006,-30.348c-26.128,16.602 -41.021,35.655 -41.021,55.933c0,64.035 148.339,115.951 331.3,115.951c182.97,0 331.298,-51.916 331.298,-115.951c-0,-20.012 -14.479,-38.84 -39.969,-55.261Z" style="fill:url(#_Linear1);"/><path d="M657.439,314.558l0,11.893c0,9.452 -9.888,15.624 -18.384,11.504l-89.45,-43.294c-5.559,9.437 -15.797,15.782 -27.542,15.782c-12.671,0 -23.581,-7.371 -28.767,-18.071l-94.148,45.583c-8.496,4.12 -18.385,-2.052 -18.385,-11.504l0,-11.505c-67.477,36.814 -118.708,99.67 -140.222,175.051c-3.323,11.618 2.454,23.894 13.401,28.977c72,33.562 292.976,115.8 530.699,-3.063c10.699,-5.374 16.262,-17.559 12.848,-29.041c-22.112,-74.265 -73.14,-136.07 -140.05,-172.312Z" style="fill:url(#_Linear2);"/><path d="M415.007,308.299l85.966,-41.62c8.349,-4.052 8.349,-15.952 0,-19.998l-85.966,-41.614c-7.374,-3.563 -15.94,1.808 -15.94,10.001l-0,83.236c-0,8.182 8.566,13.556 15.94,9.995Z" style="fill:url(#_Linear3);"/><path d="M639.033,298.304l0,-83.236c0,-8.193 -8.578,-13.564 -15.952,-10.001l-85.966,41.614c-8.353,4.046 -8.353,15.946 0,19.998l85.966,41.62c7.374,3.561 15.952,-1.813 15.952,-9.995Z" style="fill:url(#_Linear4);"/><path d="M549.357,256.688c0,15.315 -12.428,27.749 -27.737,27.749c-15.308,-0 -27.737,-12.434 -27.737,-27.749c0,-15.315 12.429,-27.749 27.737,-27.749c15.309,0 27.737,12.434 27.737,27.749Z" style="fill:url(#_Linear5);"/><path d="M453.257,736.817l139.609,-0l66.983,-91.547c0,0 -46.541,11.793 -86.119,11.712c-0,0 -41.439,71.39 -100.683,4.112c0,0 -68.067,-2.366 -94.808,-11.837l75.018,87.56Z" style="fill:url(#_Linear6);"/><path d="M414.383,871.706l209.322,0l-0,-70.383c-0,-23.868 -19.345,-43.213 -43.207,-43.213l-122.901,-0c-23.869,-0 -43.214,19.345 -43.214,43.213l0,70.383Z" style="fill:url(#_Linear7);"/><path d="M1153.33,232.689c9.618,-43.903 30.964,-81.082 68.548,-106.458c32.535,-21.965 69.969,-30.638 108.883,-30.638l122.812,-0c2.079,-0 3.865,0.845 5.171,2.476c1.296,1.61 1.754,3.521 1.329,5.555l-23.076,107.919c-0.657,3.094 -3.326,5.257 -6.485,5.257l-118.748,-0c-10.715,-0 -22.269,2.062 -24.701,14.111c-0.726,3.591 3.186,9.264 5.186,11.869c6.319,8.265 15.535,16.06 23.645,22.486c14.443,11.471 28.873,23.027 42.948,34.935c8.142,6.891 16.889,14.254 24.242,22.001c21.975,23.146 39.135,51.492 39.135,84.323c0,8.009 -0.79,16.008 -2.119,23.896c-0.025,0.107 -0.047,0.199 -0.067,0.31c-7.588,35.096 -21.728,69.866 -48.026,95.2c-40.793,39.305 -100.681,49.441 -155.234,49.441l-125.521,-0c-2.082,-0 -3.857,-0.868 -5.168,-2.469c-1.306,-1.625 -1.764,-3.537 -1.328,-5.567l23.071,-107.897c0.658,-3.104 3.326,-5.252 6.5,-5.252l121.443,-0c10.029,-0 22.22,-0.986 31.388,-5.392c6.415,-3.086 10.224,-7.774 11.642,-14.757c0,-0.048 0.01,-0.104 0.026,-0.155c2.956,-13.136 -17.643,-31.222 -26.243,-38.324c-15.148,-12.497 -30.27,-25.009 -45.214,-37.754c-4.279,-3.643 -8.544,-7.293 -12.745,-11.028c-2.134,-1.898 -4.554,-3.998 -6.482,-6.131c-21.58,-22.924 -37.717,-50.64 -37.717,-82.902l0,-11.402c0,-3.576 1.93,-10.065 2.905,-13.653Zm288.658,172.729c10.799,-50.263 38.625,-90.742 78.277,-123.122c38.747,-31.635 83.208,-51.305 133.797,-51.305c33.07,0 65.713,7.253 92.015,28.252c25.659,20.484 42.176,48.712 52.688,79.45c1.026,3.024 -0.185,6.279 -2.927,7.88l-186.595,109.245c-1.702,1.008 -3.547,1.207 -5.426,0.59c-1.879,-0.612 -3.249,-1.871 -4.031,-3.684l-27.365,-63.446c-1.354,-3.126 -0.133,-6.754 2.846,-8.43l90.769,-51.039c-2.334,-0.992 -4.762,-1.797 -7.254,-2.388c-6.245,-1.439 -12.685,-2.044 -19.089,-2.044c-20.916,-0 -37.876,9.659 -52.065,24.607c-14.191,14.977 -23.249,32.675 -27.483,52.88c-1.199,5.707 -1.897,11.471 -1.897,17.285c-0,14.974 3.917,28.579 13.435,40.272c9.394,11.548 22.272,15.871 36.918,15.871c20.687,0 40.069,-8.855 56.884,-20.293c19.48,-13.262 36.327,-29.502 49.426,-49.138c1.933,-2.887 5.721,-3.798 8.761,-2.114l69.999,38.862c1.676,0.941 2.758,2.369 3.215,4.233c0.462,1.864 0.159,3.643 -0.893,5.226c-25.028,38.003 -57.065,69.087 -95.666,93.138c-36.425,22.699 -76.372,36.537 -119.537,36.537c-39.347,-0 -73.871,-12.771 -101.739,-40.727c-27.725,-27.789 -40.61,-61.926 -40.61,-101.077c-0,-5.728 0.254,-11.459 0.704,-17.155c0.477,-6.204 1.436,-12.334 2.843,-18.366Zm514.285,-59.265l-47.732,223.952c-0.66,3.108 -3.332,5.267 -6.5,5.267l-107.879,-0c-2.081,-0 -3.863,-0.868 -5.174,-2.485c-1.306,-1.609 -1.765,-3.528 -1.314,-5.558l75.306,-349.204c7.829,-36.27 26.62,-65.691 56.047,-88.306c31.307,-24.046 67.902,-34.226 107.186,-34.226l59.7,-0c2.082,-0 3.873,0.859 5.175,2.476c1.307,1.624 1.764,3.555 1.321,5.589l-21.039,97.168c-0.664,3.092 -3.325,5.245 -6.484,5.245l-50.212,-0c-8.263,-0 -18.045,1.428 -23.969,7.824c-4.979,5.359 -8.245,13.878 -10.385,21.78l75.072,-0c2.072,-0 3.865,0.871 5.157,2.477c1.311,1.621 1.764,3.54 1.329,5.566l-21.031,97.194c-0.668,3.092 -3.326,5.241 -6.492,5.241l-78.082,-0Zm70.57,59.265c10.799,-50.263 38.626,-90.742 78.277,-123.122c38.745,-31.635 83.202,-51.305 133.787,-51.305c33.078,0 65.702,7.253 92.012,28.252c25.666,20.484 42.171,48.712 52.699,79.45c1.026,3.024 -0.181,6.279 -2.939,7.88l-186.595,109.245c-1.698,1.008 -3.547,1.207 -5.414,0.59c-1.879,-0.612 -3.253,-1.871 -4.031,-3.684l-27.369,-63.446c-1.35,-3.126 -0.137,-6.754 2.85,-8.43l90.763,-51.039c-2.343,-0.992 -4.757,-1.797 -7.259,-2.388c-6.23,-1.439 -12.678,-2.044 -19.079,-2.044c-20.923,-0 -37.873,9.659 -52.06,24.607c-14.195,14.977 -23.258,32.675 -27.491,52.88c-1.207,5.707 -1.901,11.471 -1.901,17.285c0,14.974 3.927,28.579 13.439,40.272c9.397,11.548 22.272,15.871 36.914,15.871c20.687,0 40.068,-8.855 56.88,-20.293c19.492,-13.262 36.337,-29.502 49.44,-49.138c1.931,-2.887 5.714,-3.798 8.751,-2.114l69.997,38.862c1.682,0.941 2.768,2.369 3.225,4.233c0.457,1.864 0.155,3.643 -0.904,5.226c-25.022,38.003 -57.054,69.087 -95.673,93.138c-36.411,22.699 -76.355,36.537 -119.535,36.537c-39.331,-0 -73.856,-12.771 -101.723,-40.727c-27.722,-27.789 -40.618,-61.926 -40.618,-101.077c-0,-5.728 0.261,-11.459 0.694,-17.155c0.479,-6.204 1.453,-12.334 2.863,-18.366Zm513.049,-134.841c8.058,-8.634 17.381,-15.971 28.166,-20.606c20.144,-8.689 44.336,-10.937 66.071,-10.937c2.063,0 3.857,0.841 5.149,2.451c1.311,1.617 1.78,3.514 1.351,5.548l-20.359,97.186c-0.654,3.107 -3.322,5.274 -6.5,5.274c-18.595,-0 -53.371,1.347 -68.204,14.428c-12.296,10.848 -19.703,39.854 -23.011,55.168l-32.561,151.03c-0.668,3.104 -3.325,5.253 -6.5,5.253l-107.879,-0c-2.074,-0 -3.864,-0.868 -5.174,-2.469c-1.292,-1.625 -1.749,-3.537 -1.325,-5.567l69.205,-323.061c0.672,-3.086 3.329,-5.241 6.504,-5.241l93.639,0c2.078,0 3.849,0.845 5.156,2.459c1.31,1.619 1.765,3.553 1.328,5.587l-5.056,23.497Zm235.45,-34.997l68.101,0.095c2.074,-0 3.865,0.871 5.159,2.488c1.307,1.61 1.764,3.529 1.33,5.555l-21.046,97.194c-0.658,3.092 -3.326,5.241 -6.486,5.241l-71.286,-0l-17.197,81.551c-0.708,3.908 -1.398,7.839 -1.97,11.76c-0.263,1.811 -0.605,4.012 -0.605,5.82c-0,6.064 1.328,12.077 7.146,14.934c8.606,4.247 24.968,4.691 34.384,4.691l23.065,0c2.078,0 3.864,0.838 5.17,2.461c1.312,1.617 1.765,3.547 1.314,5.581l-21.027,97.18c-0.671,3.092 -3.328,5.241 -6.488,5.241l-61.063,-0c-28.055,-0 -57.966,-5.537 -78.898,-25.661c-19.064,-18.306 -26.804,-41.964 -26.804,-68.115c0,-10.029 1.535,-20.352 3.515,-30.144c0.014,-0.022 0.014,-0.034 0.026,-0.066l61.623,-288.208c0.668,-3.089 3.326,-5.245 6.485,-5.245l104.151,-0.099c2.09,-0.026 3.872,0.829 5.178,2.454c1.311,1.616 1.764,3.551 1.322,5.581l-15.099,69.711Zm310.242,183.04c1.698,-9.057 3.259,-18.949 3.259,-28.179c0,-35.796 -20.23,-48.99 -54.423,-48.99c-19.541,-0 -36.836,6.632 -52.238,18.602c-15.429,11.992 -25.812,27.114 -30.144,46.184c-1.196,5.931 -1.894,11.892 -1.894,17.954c-0,13.656 3.765,25.877 14.088,35.148c10.224,9.206 22.741,12.94 36.379,12.94c9.197,0 18.636,-0.457 27.703,-2.032c8.11,-1.404 16.046,-3.571 23.8,-6.319c2.337,-0.821 4.75,-0.348 6.603,1.28c1.85,1.639 2.621,3.979 2.1,6.393l-18.889,87.907c-0.392,1.864 -1.429,3.306 -3.06,4.3c-11.538,6.935 -23.914,12.054 -37.098,14.877c-14.273,3.054 -29.225,4.058 -43.79,4.058c-34.119,-0 -63.972,-11.664 -89.361,-34.44c-29.905,-26.819 -43.04,-61.433 -43.04,-101.332c-0,-5.293 0.255,-10.601 0.704,-15.878c0.706,-8.228 2.47,-16.879 4.201,-24.936c10.962,-51.338 38.272,-92.769 79.385,-125.257c42.033,-33.211 89.996,-49.909 143.555,-49.909c41.402,0 83.254,8.198 117.239,33.119c31.99,23.445 46.137,56.328 46.137,95.508c0,12.127 -1.682,24.389 -4.219,36.23l-37.315,174.257c-0.664,3.118 -3.337,5.267 -6.496,5.267l-108.565,-0c-2.072,-0 -3.857,-0.868 -5.164,-2.469c-1.31,-1.625 -1.764,-3.537 -1.328,-5.567l31.871,-148.716Zm256.65,44.517c-1.624,-2.462 -8.342,-6.916 -10.347,-8.198c-9.618,-6.09 -20.351,-11.379 -30.63,-16.28c-31.809,-15.155 -53.992,-39.169 -53.992,-75.709c-0,-9.024 0.945,-18.038 2.868,-26.858c6.792,-31.322 24.291,-55.586 51.009,-73.189c24.32,-16.018 51.205,-23.869 80.326,-23.869l105.163,0c2.082,0 3.864,0.841 5.16,2.451c1.306,1.617 1.779,3.528 1.342,5.558l-18.321,86.457c-0.656,3.101 -3.326,5.274 -6.499,5.274l-84.811,-0c-7.172,-0 -15.056,1.167 -18.06,8.061c2.503,2.806 9.608,7.516 11.777,8.91c10.985,7.069 22.87,13.409 34.448,19.414c29.17,15.159 55.15,38.235 55.15,73.588c-0,6.546 -0.803,13.102 -2.188,19.502c-6.884,31.835 -21.707,59.801 -47.942,79.639c-26.774,20.219 -59.155,27.484 -92.218,27.484l-120.768,-0c-2.085,-0 -3.879,-0.868 -5.17,-2.485c-1.312,-1.616 -1.765,-3.539 -1.318,-5.573l19.669,-90.487c0.672,-3.093 3.328,-5.212 6.488,-5.212l103.815,0c6.788,0 13.705,-1.052 15.049,-8.478Zm248.536,112.235l-107.195,-0c-2.082,-0 -3.865,-0.868 -5.175,-2.469c-1.293,-1.625 -1.764,-3.537 -1.325,-5.567l69.206,-323.061c0.664,-3.086 3.328,-5.241 6.502,-5.241l107.203,0c2.064,0 3.858,0.841 5.164,2.459c1.304,1.609 1.765,3.553 1.33,5.573l-69.21,323.039c-0.672,3.118 -3.325,5.267 -6.5,5.267" style="fill:#fff;"/><path d="M1424.09,429.321c-8.873,39.759 -24.751,70.36 -47.643,91.819c-34.108,31.732 -85.962,47.595 -155.569,47.595l-129.626,-0l23.814,-107.927l125.436,-0c14.953,-0 26.738,-2.004 35.393,-6.016c8.637,-4.031 13.892,-10.512 15.757,-19.448c2.804,-12.061 -7.006,-27.021 -29.429,-44.903c-40.176,-32.167 -62.125,-50.271 -65.86,-54.283c-24.763,-25.471 -37.138,-51.607 -37.138,-78.414l-0,-11.402c-0,-1.343 0.933,-5.356 2.79,-12.062c10.279,-45.575 32.937,-79.753 67.979,-102.557c29.901,-19.654 66.098,-29.475 108.607,-29.475l126.832,-0l-23.822,107.889l-122.631,0c-18.677,0 -29.429,6.478 -32.233,19.448c-1.865,9.397 8.884,23.021 32.233,40.878c35.975,27.704 58.866,46.468 68.677,56.308c25.693,26.365 38.534,52.955 38.534,79.754c-0,7.154 -0.69,14.761 -2.101,22.796Zm389.236,20.097c-25.22,37.082 -57.453,67.478 -96.699,91.163c-39.242,23.673 -79.175,35.521 -119.819,35.521c-40.176,0 -73.583,-12.954 -100.21,-38.755c-26.622,-25.939 -39.932,-57.985 -39.932,-96.408c-0,-5.373 0.229,-10.847 0.69,-16.656c0.477,-5.802 1.41,-11.612 2.806,-17.422c10.275,-46.354 36.436,-86.131 78.484,-119.405c42.033,-33.186 86.655,-49.828 133.838,-49.828c37.369,0 67.617,8.936 90.744,26.818c23.118,17.872 40.528,43.344 52.198,76.4l-192.7,109.244l-28.262,-63.448l104.409,-56.865c-6.543,-4.346 -13.194,-7.25 -19.964,-8.816c-6.655,-1.461 -13.786,-2.231 -21.26,-2.231c-21.953,-0 -41.578,8.935 -58.741,26.699c-15.424,15.521 -25.461,34.297 -30.129,56.073c-1.406,6.264 -2.1,12.409 -2.1,18.647c-0,17.428 5.134,32.174 15.409,44.457c10.28,12.173 24.755,18.319 43.443,18.319c20.097,-0 40.881,-7.135 62.602,-21.434c21.72,-14.306 39.364,-31.273 52.905,-50.935l72.288,38.862Zm251.9,-109.92l-86.195,-0l-50.451,229.237l-111.408,-0l77.769,-349.201c7.478,-34.406 25.932,-62.569 55.359,-84.448c29.436,-21.892 64.932,-32.838 106.521,-32.838l61.654,-0l-21.722,97.168l-51.854,-0c-13.542,-0 -23.47,3.347 -29.781,9.95c-6.301,6.593 -11.095,17.539 -14.366,32.964l86.195,-0l-21.721,97.168Zm352.101,109.92c-25.231,37.082 -57.464,67.478 -96.707,91.163c-39.242,23.673 -79.178,35.521 -119.826,35.521c-40.172,0 -73.579,-12.954 -100.202,-38.755c-26.619,-25.939 -39.939,-57.985 -39.939,-96.408c-0,-5.373 0.239,-10.847 0.697,-16.656c0.476,-5.802 1.406,-11.612 2.802,-17.422c10.278,-46.354 36.44,-86.131 78.488,-119.405c42.039,-33.186 86.655,-49.828 133.833,-49.828c37.378,0 67.625,8.936 90.742,26.818c23.124,17.872 40.53,43.344 52.213,76.4l-192.701,109.244l-28.262,-63.448l104.405,-56.865c-6.54,-4.346 -13.201,-7.25 -19.971,-8.816c-6.655,-1.461 -13.785,-2.231 -21.257,-2.231c-21.957,-0 -41.578,8.935 -58.736,26.699c-15.421,15.521 -25.464,34.297 -30.133,56.073c-1.41,6.264 -2.116,12.409 -2.116,18.647c-0,17.428 5.146,32.174 15.424,44.457c10.284,12.173 24.759,18.319 43.443,18.319c20.083,-0 40.874,-7.135 62.605,-21.434c21.722,-14.306 39.347,-31.273 52.903,-50.935l72.295,38.862Zm246.278,-106.561c-37.367,0 -62.362,5.356 -74.97,16.089c-10.279,8.832 -18.931,28.489 -25.929,58.763l-33.643,151.026l-111.407,-0l71.475,-323.064l96.699,0l-11.915,53.625c13.543,-21.894 28.613,-36.311 45.2,-43.228c16.583,-6.936 38.418,-10.397 65.517,-10.397l-21.027,97.186Zm166.41,225.878l-63.064,-0c-34.1,-0 -59.678,-7.939 -76.734,-23.806c-17.048,-15.849 -25.575,-36.969 -25.575,-63.333c0,-8.043 1.163,-17.654 3.511,-28.816l63.646,-288.207l107.558,-0.108l-17.406,77.75l78.835,0.115l-21.722,97.168l-79.182,-0l-18.919,86.926c-1.865,9.813 -2.802,16.191 -2.802,18.86c-0,10.279 3.743,17.314 11.213,20.891c7.474,3.569 20.315,5.374 38.541,5.374l23.821,-0l-21.721,97.186Zm406.75,-0l-112.113,-0l32.931,-148.793c2.347,-12.073 3.506,-21.895 3.506,-29.501c0,-37.098 -21.031,-55.627 -63.064,-55.627c-21.03,0 -40.407,6.703 -58.157,19.998c-17.758,13.39 -28.966,30.052 -33.636,50.049c-1.402,6.703 -2.1,13.055 -2.1,19.33c0,16.963 5.603,30.265 16.815,40.087c11.21,9.711 25.347,14.634 42.163,14.634c11.208,-0 21.13,-0.66 29.771,-2.133c8.655,-1.432 17.181,-3.669 25.699,-6.574l-19.499,87.907c-11.685,6.814 -23.707,11.516 -36.212,14.085c-12.375,2.569 -26.973,3.905 -43.793,3.905c-33.292,0 -62.483,-10.94 -87.7,-32.734c-28.148,-24.575 -42.162,-56.631 -42.162,-96.397c0,-4.924 0.229,-10.066 0.69,-15.318c0.477,-5.358 1.871,-13.401 4.212,-24.12c10.74,-48.587 37.26,-89.04 79.529,-121.421c42.272,-32.277 90.284,-48.484 144.001,-48.484c48.12,0 87.121,10.611 117.019,31.835c29.899,21.233 44.852,51.267 44.852,90.155c0,10.268 -1.41,21.886 -4.212,34.853l-38.54,174.264Zm298.845,-101.888c-7.475,33.07 -23.124,58.328 -46.945,75.749c-23.822,17.428 -54.194,26.139 -91.097,26.139l-124.731,-0l20.325,-90.483l107.211,-0c13.542,-0 21.017,-4.931 22.423,-14.746c1.395,-5.809 -14.018,-16.089 -46.245,-30.845c-34.576,-16.081 -51.854,-39.315 -51.854,-69.711c0,-8.474 0.938,-16.978 2.802,-25.464c6.529,-29.04 23.116,-52.042 49.742,-69.027c23.834,-15.181 50.223,-22.788 79.191,-22.788l108.605,0l-18.915,86.46l-87.59,-0c-14.477,-0 -23.132,4.92 -25.934,14.738c-0.933,4.913 16.362,16.314 51.854,34.193c35.508,17.879 53.258,40.445 53.258,67.685c0,5.373 -0.698,11.389 -2.1,18.1Zm136.974,101.888l-110.706,-0l71.475,-323.064l110.706,0l-71.475,323.064Z" style="fill:#1a1a18;fill-rule:nonzero;"/><path d="M1324.83,781.857l-57.76,0l-59.191,194.712l-57.757,0l59.2,-194.712l-57.759,0l16.609,-54.633l173.267,0l-16.609,54.633Zm166.203,194.712l-60.395,0l0.395,-37.123l-72.273,-0l-22.835,37.123l-60.395,0l161.28,-249.345l44.556,0l9.667,249.345Zm-59.638,-88.253l0.432,-66.541l-41.35,66.541l40.918,-0Zm281.328,14.712c-7.029,23.109 -19.393,41.147 -37.084,54.105c-17.679,12.956 -37.2,19.436 -58.541,19.436l-102.306,0l75.808,-249.345l97.348,0c23.984,0 40.471,6.541 49.488,19.614c9.003,13.077 10.17,30.583 3.503,52.526c-6.179,20.311 -19.768,36.776 -40.758,49.381c15.453,12.838 19.639,30.938 12.542,54.283Zm-30.503,-100.512c4.12,-13.535 -0.749,-20.311 -14.616,-20.311l-35.969,-0l-12.348,40.626l35.967,0c13.867,0 22.848,-6.769 26.966,-20.315Zm-26.187,97.009c4.399,-14.476 -0.443,-21.713 -14.524,-21.713l-38.932,-0l-13.31,43.777l38.932,0c14.081,0 23.361,-7.352 27.834,-22.064Zm230.687,77.044l-156.422,0l75.805,-249.345l57.749,0l-59.192,194.713l98.67,-0l-16.61,54.632Zm246.474,-124.671c-8.452,27.785 -14.572,45.756 -18.38,53.931c-8.172,18.208 -20.341,33.617 -36.492,46.226c-20.367,16.343 -43.974,24.514 -70.815,24.514l-87.125,0l75.808,-249.345l87.121,0c26.841,0 45.481,8.172 55.914,24.512c7.896,12.375 10.693,27.785 8.383,46.225c-1.019,7.71 -5.828,25.685 -14.414,53.937Zm-57.751,-0c9.371,-30.821 12.954,-49.496 10.765,-56.037c-3.325,-9.334 -11.149,-14.004 -23.47,-14.004l-25.405,0l-42.582,140.08l25.401,-0c12.546,-0 23.205,-4.67 31.986,-14.008c3.481,-3.503 6.408,-8.057 8.774,-13.656c2.362,-5.603 4.51,-11.21 6.429,-16.813c1.923,-5.599 4.628,-14.125 8.102,-25.562Zm268.958,-0c-8.023,26.382 -14.328,44.239 -18.923,53.576c-8.695,18.448 -20.307,33.507 -34.865,45.181c-23.274,18.674 -48.007,28.011 -74.183,28.011c-26.184,-0 -45.233,-9.337 -57.163,-28.011c-7.303,-11.445 -9.758,-26.497 -7.378,-45.181c1.495,-10.74 6.05,-28.597 13.646,-53.576c8.02,-26.383 14.328,-44.24 18.931,-53.579c8.684,-18.447 20.304,-33.51 34.853,-45.181c23.279,-18.675 48.004,-28.014 74.191,-28.014c26.178,0 45.23,9.339 57.152,28.014c7.304,11.446 9.765,26.498 7.389,45.181c-1.509,10.737 -6.057,28.598 -13.65,53.579Zm-57.751,-0c5.104,-16.813 8.514,-30.175 10.208,-40.095c1.698,-9.929 1.647,-16.986 -0.159,-21.194c-3.299,-7.237 -9.902,-10.852 -19.798,-10.852c-9.906,-0 -18.808,3.792 -26.729,11.376c-7.917,7.593 -16.879,27.844 -26.889,60.765c-9.866,32.454 -13.295,52.584 -10.275,60.405c3.012,7.821 9.685,11.734 20.03,11.734c9.682,-0 18.655,-3.85 26.941,-11.56c7.917,-7.936 16.805,-28.125 26.671,-60.579Zm278.377,-70.041l-57.759,0l-59.191,194.712l-57.761,0l59.204,-194.712l-57.76,0l16.61,-54.633l173.267,0l-16.61,54.633Zm299.433,-54.633l-115.886,147.789l-30.873,101.556l-57.753,0l30.879,-101.556l-26.029,-147.789l63.038,0l9.699,89.657l63.895,-89.657l63.03,0Zm107.686,249.345l-159.729,0l75.804,-249.345l159.73,0l-16.61,54.633l-101.972,0l-12.671,41.671l87.124,-0l-16.61,54.63l-87.123,0l-13.31,43.779l101.97,-0l-16.603,54.632Zm260.049,0l-57.748,0l36.304,-119.42l-52.067,61.635l-36.965,0l-14.591,-61.635l-36.304,119.42l-57.756,0l75.808,-249.345l56.759,0l19.37,109.961l86.236,-109.961l56.767,0l-75.813,249.345Zm207.258,0l-159.729,0l75.805,-249.345l159.725,0l-16.609,54.633l-101.969,0l-12.672,41.671l87.125,-0l-16.609,54.63l-87.125,0l-13.309,43.779l101.977,-0l-16.61,54.632Zm239.262,0l-67.323,0l-23.031,-102.26l-27.154,24.164l-23.741,78.096l-57.087,0l75.805,-249.345l57.087,0l-26.83,88.254l94.81,-88.254l70.629,0l-110.853,100.859l37.688,148.486Z" style="fill:#1a1a18;fill-rule:nonzero;"/><defs><linearGradient id="_Linear1" x1="0" y1="0" x2="1" y2="0" gradientUnits="userSpaceOnUse" gradientTransform="matrix(662.76,0,0,-662.76,187.698,531.426)"><stop offset="0" style="stop-color:#f7a712;stop-opacity:1"/><stop offset="1" style="stop-color:#df6b1c;stop-opacity:1"/></linearGradient><linearGradient id="_Linear2" x1="0" y1="0" x2="1" y2="0" gradientUnits="userSpaceOnUse" gradientTransform="matrix(557.552,0,0,-557.552,240.433,375.437)"><stop offset="0" style="stop-color:#f7a712;stop-opacity:1"/><stop offset="1" style="stop-color:#df6b1c;stop-opacity:1"/></linearGradient><linearGradient id="_Linear3" x1="0" y1="0" x2="1" y2="0" gradientUnits="userSpaceOnUse" gradientTransform="matrix(102.344,0,0,-102.344,399.027,256.817)"><stop offset="0" style="stop-color:#f7a712;stop-opacity:1"/><stop offset="1" style="stop-color:#df6b1c;stop-opacity:1"/></linearGradient><linearGradient id="_Linear4" x1="0" y1="0" x2="1" y2="0" gradientUnits="userSpaceOnUse" gradientTransform="matrix(-102.083,-1.25016e-14,-1.25016e-14,102.083,638.87,256.817)"><stop offset="0" style="stop-color:#f7a712;stop-opacity:1"/><stop offset="1" style="stop-color:#df6b1c;stop-opacity:1"/></linearGradient><linearGradient id="_Linear5" x1="0" y1="0" x2="1" y2="0" gradientUnits="userSpaceOnUse" gradientTransform="matrix(55.599,0,0,-55.599,493.818,256.817)"><stop offset="0" style="stop-color:#f7a712;stop-opacity:1"/><stop offset="1" style="stop-color:#df6b1c;stop-opacity:1"/></linearGradient><linearGradient id="_Linear6" x1="0" y1="0" x2="1" y2="0" gradientUnits="userSpaceOnUse" gradientTransform="matrix(281.38,0,0,-281.38,378.323,691.062)"><stop offset="0" style="stop-color:#f7a712;stop-opacity:1"/><stop offset="1" style="stop-color:#df6b1c;stop-opacity:1"/></linearGradient><linearGradient id="_Linear7" x1="0" y1="0" x2="1" y2="0" gradientUnits="userSpaceOnUse" gradientTransform="matrix(209.375,0,0,-209.375,414.391,815.02)"><stop offset="0" style="stop-color:#f7a712;stop-opacity:1"/><stop offset="1" style="stop-color:#df6b1c;stop-opacity:1"/></linearGradient></defs></svg>